<svg width="512" height="512" viewBox="0 0 512 512" fill="none" xmlns="http://www.w3.org/2000/svg">
  <defs>
    <clipPath id="clip">
      <rect width="512" height="512" rx="96"/>
    </clipPath>
    <linearGradient id="aurora" x1="32" y1="152" x2="480" y2="120" gradientUnits="userSpaceOnUse">
      <stop offset="0" stop-color="#53F2AE"/>
      <stop offset="0.5" stop-color="#3CD8FF"/>
      <stop offset="1" stop-color="#7CF17D"/>
    </linearGradient>
    <filter id="glow" x="-20%" y="-50%" width="140%" height="200%">
      <feGaussianBlur stdDeviation="12"/>
    </filter>
  </defs>

  <g clip-path="url(#clip)">
    <rect width="512" height="512" fill="#012169"/>

    <path d="M-40 0 L552 512 M552 0 L-40 512" stroke="#FFFFFF" stroke-width="120" stroke-linecap="square"/>
    <path d="M-32 0 L544 512 M544 0 L-32 512" stroke="#C8102E" stroke-width="60" stroke-linecap="square"/>

    <rect x="0" y="206" width="512" height="100" fill="#FFFFFF"/>
    <rect x="206" y="0" width="100" height="512" fill="#FFFFFF"/>
    <rect x="0" y="224" width="512" height="64" fill="#C8102E"/>
    <rect x="224" y="0" width="64" height="512" fill="#C8102E"/>

    <path
      d="M40 172 C170 104 294 104 472 176"
      stroke="url(#aurora)"
      stroke-width="54"
      stroke-linecap="round"
      opacity="0.78"
      filter="url(#glow)"
    />
    <path
      d="M56 184 C180 126 304 126 456 188"
      stroke="url(#aurora)"
      stroke-width="32"
      stroke-linecap="round"
      opacity="0.9"
    />
  </g>
</svg>
