<svg width="226" height="167" viewBox="0 0 226 167" fill="none" xmlns="http://www.w3.org/2000/svg">
<g filter="url(#filter0_d_399_4643)">
<rect x="21.3229" y="21.3229" width="182.562" height="124.354" rx="14.5521" fill="white" stroke="#D9D9D9" stroke-width="2.64583"/>
<path d="M165.505 95.7712H165.599L173.322 76.3874H178.751L162.063 115.251H156.914L163.118 101.656L152.169 76.3874H157.596L165.505 95.7712ZM139.389 75.5056C143.08 75.5056 145.996 76.5133 148.136 78.4958C150.276 80.4782 151.331 83.2473 151.331 86.7399V103.386H146.554V99.6423H146.337C144.258 102.726 141.529 104.268 138.087 104.268C135.171 104.268 132.689 103.387 130.735 101.625C128.812 99.9884 127.727 97.5652 127.789 95.0163C127.789 92.2156 128.843 90.0132 130.922 88.3454C133 86.6776 135.791 85.8591 139.265 85.8591C142.243 85.8591 144.662 86.426 146.585 87.4958V86.3307C146.585 84.6001 145.84 82.9636 144.538 81.8307C143.204 80.6351 141.498 79.9743 139.73 79.9743C136.939 79.9743 134.737 81.1706 133.124 83.5622L128.719 80.7614C131.077 77.2684 134.644 75.5056 139.389 75.5056ZM115.722 63.9255C118.917 63.8625 122.02 65.0895 124.284 67.3552C128.812 71.6348 129.091 78.8416 124.841 83.4675L124.284 84.0339C121.958 86.2681 119.103 87.4011 115.722 87.4011H107.472V103.386H102.478V63.9255H115.722ZM140.042 89.9499C138.026 89.95 136.32 90.4532 134.955 91.4284C133.621 92.4039 132.938 93.632 132.938 95.111C132.938 96.4325 133.559 97.6596 134.583 98.4147C135.699 99.2956 137.064 99.7674 138.46 99.736C140.569 99.736 142.586 98.887 144.075 97.3766C145.719 95.8032 146.557 93.9462 146.557 91.8063C145.006 90.5476 142.834 89.9184 140.042 89.9499ZM107.472 82.5544H115.848C117.71 82.6173 119.509 81.8625 120.781 80.5095C123.387 77.7717 123.325 73.3657 120.626 70.7224C119.354 69.4638 117.647 68.7712 115.848 68.7712H107.472V82.5544Z" fill="#3C4043"/>
<path d="M90.2316 83.939C90.2316 82.397 90.1075 80.8551 89.8594 79.3446H68.7986V88.0613H80.8644C80.3681 90.862 78.7552 93.3795 76.3978 94.9529V100.617H83.5939C87.8123 96.6836 90.2316 90.862 90.2316 83.939Z" fill="#4285F4"/>
<path d="M68.7995 106.093C74.8169 106.093 79.9038 104.079 83.5948 100.617L76.3988 94.9529C74.3827 96.3375 71.8082 97.1242 68.7995 97.1242C62.9683 97.1242 58.0365 93.1277 56.2685 87.7781H48.8553V93.6312C52.6395 101.278 60.3628 106.093 68.7995 106.093Z" fill="#34A853"/>
<path d="M56.2693 87.7782C55.3386 84.9775 55.3386 81.9251 56.2693 79.0929V73.2713H48.855C45.6597 79.6594 45.6597 87.2117 48.855 93.5998L56.2693 87.7782Z" fill="#FBBC04"/>
<path d="M68.7995 69.7468C71.9943 69.6839 75.0651 70.9111 77.3603 73.1454L83.7499 66.6629C79.6867 62.8238 74.3517 60.7154 68.7995 60.7783C60.3628 60.7783 52.6395 65.6245 48.8553 73.2713L56.2685 79.1244C58.0365 73.7433 62.9683 69.7468 68.7995 69.7468Z" fill="#EA4335"/>
</g>
<defs>
<filter id="filter0_d_399_4643" x="0" y="0" width="225.208" height="167" filterUnits="userSpaceOnUse" color-interpolation-filters="sRGB">
<feFlood flood-opacity="0" result="BackgroundImageFix"/>
<feColorMatrix in="SourceAlpha" type="matrix" values="0 0 0 0 0 0 0 0 0 0 0 0 0 0 0 0 0 0 127 0" result="hardAlpha"/>
<feOffset/>
<feGaussianBlur stdDeviation="10"/>
<feComposite in2="hardAlpha" operator="out"/>
<feColorMatrix type="matrix" values="0 0 0 0 0 0 0 0 0 0 0 0 0 0 0 0 0 0 0.07 0"/>
<feBlend mode="normal" in2="BackgroundImageFix" result="effect1_dropShadow_399_4643"/>
<feBlend mode="normal" in="SourceGraphic" in2="effect1_dropShadow_399_4643" result="shape"/>
</filter>
</defs>
</svg>
